# Blender v2.82 (sub 7) OBJ File: ''
# www.blender.org
mtllib dirtpath.mtl
o dirtpath
v 7.167688 -4.625202 4.222586
v 7.108924 -4.625200 2.919686
v 7.072280 -4.625202 4.222586
v 7.008924 -4.625200 2.919686
v 7.263095 -4.625202 4.222586
v 7.208924 -4.625200 2.919686
v 7.358503 -4.625202 4.222586
v 7.308924 -4.625200 2.919686
v 7.453910 -4.625202 4.222586
v 7.408925 -4.625200 2.919686
v 7.549317 -4.625202 4.222586
v 7.508924 -4.625200 2.919686
v 7.644725 -4.625202 4.222586
v 7.608924 -4.625200 2.919686
v 7.740132 -4.625202 4.222586
v 7.708924 -4.625200 2.919686
v 7.835540 -4.625202 4.222586
v 7.808924 -4.625200 2.919686
v 7.930947 -4.625202 4.222586
v 7.908925 -4.625200 2.919686
v 8.026355 -4.625202 4.222586
v 8.008924 -4.625200 2.919686
v 7.008924 -4.625200 1.636870
v 7.108924 -4.625200 1.636870
v 7.208924 -4.625200 1.636870
v 7.308924 -4.625200 1.636870
v 7.408925 -4.625200 1.636870
v 7.508924 -4.625200 1.636870
v 7.608924 -4.625200 1.636870
v 7.708924 -4.625200 1.636870
v 7.808924 -4.625200 1.636870
v 7.908925 -4.625200 1.636870
v 8.008924 -4.625200 1.636870
v 7.008924 -4.625199 0.354054
v 7.108924 -4.625199 0.354054
v 7.208924 -4.625199 0.354054
v 7.308924 -4.625199 0.354054
v 7.408925 -4.625199 0.354054
v 7.508924 -4.625199 0.354054
v 7.608924 -4.625199 0.354054
v 7.708924 -4.625199 0.354054
v 7.808924 -4.625199 0.354054
v 7.908925 -4.625199 0.354054
v 8.008924 -4.625199 0.354054
v 7.008924 -4.625199 -0.928762
v 7.108924 -4.625199 -0.928762
v 7.208924 -4.625199 -0.928762
v 7.308924 -4.625199 -0.928762
v 7.408925 -4.625199 -0.928762
v 7.508924 -4.625199 -0.928762
v 7.608924 -4.625199 -0.928762
v 7.708924 -4.625199 -0.928762
v 7.808924 -4.625199 -0.928762
v 7.908925 -4.625199 -0.928762
v 8.008924 -4.625199 -0.928762
v 7.008924 -4.625199 -2.211579
v 7.108924 -4.625199 -2.211579
v 7.208924 -4.625199 -2.211579
v 7.308924 -4.625199 -2.211579
v 7.408925 -4.625199 -2.211579
v 7.508924 -4.625199 -2.211579
v 7.608924 -4.625199 -2.211579
v 7.708924 -4.625199 -2.211579
v 7.808924 -4.625199 -2.211579
v 7.908925 -4.625199 -2.211579
v 8.008924 -4.625199 -2.211579
v 7.008924 -4.625197 -3.494395
v 7.108924 -4.625197 -3.494395
v 7.208924 -4.625197 -3.494395
v 7.308924 -4.625197 -3.494395
v 7.408925 -4.625197 -3.494395
v 7.508924 -4.625197 -3.494395
v 7.608924 -4.625197 -3.494395
v 7.708924 -4.625197 -3.494395
v 7.808924 -4.625197 -3.494395
v 7.908925 -4.625197 -3.494395
v 8.008924 -4.625197 -3.494395
v 7.008924 -4.625197 -4.777210
v 7.108924 -4.625197 -4.777210
v 7.208924 -4.625197 -4.777210
v 7.308924 -4.625197 -4.777210
v 7.408925 -4.625197 -4.777210
v 7.508924 -4.625197 -4.777210
v 7.608924 -4.625197 -4.777210
v 7.708924 -4.625197 -4.777210
v 7.808924 -4.625197 -4.777210
v 7.908925 -4.625197 -4.777210
v 8.008924 -4.625197 -4.777210
v 7.008924 -4.625196 -6.060027
v 7.108924 -4.625196 -6.060027
v 7.208924 -4.625196 -6.060027
v 7.308924 -4.625196 -6.060027
v 7.408925 -4.625196 -6.060027
v 7.508924 -4.625196 -6.060027
v 7.608924 -4.625196 -6.060027
v 7.708924 -4.625196 -6.060027
v 7.808924 -4.625196 -6.060027
v 7.908925 -4.625196 -6.060027
v 8.008924 -4.625196 -6.060027
v 7.008924 -4.625196 -7.342844
v 7.108924 -4.625196 -7.342844
v 7.208924 -4.625196 -7.342844
v 7.308924 -4.625196 -7.342844
v 7.408925 -4.625196 -7.342844
v 7.508924 -4.625196 -7.342844
v 7.608924 -4.625196 -7.342844
v 7.708924 -4.625196 -7.342844
v 7.808924 -4.625196 -7.342844
v 7.908925 -4.625196 -7.342844
v 8.008924 -4.625196 -7.342844
v 7.008924 -4.656362 -8.625660
v 7.108924 -4.656362 -8.625660
v 7.208924 -4.656362 -8.625660
v 7.308924 -4.656362 -8.625660
v 7.408925 -4.656362 -8.625660
v 7.508924 -4.656362 -8.625660
v 7.608924 -4.656362 -8.625660
v 7.708924 -4.656362 -8.625660
v 7.808924 -4.656362 -8.625660
v 7.908925 -4.656362 -8.625660
v 8.008924 -4.656362 -8.625660
vt -5.575696 11.304575
vt -4.281800 9.191854
vt -5.477271 11.364853
vt -4.183374 9.252134
vt -5.674123 11.244295
vt -4.380226 9.131576
vt -5.772548 11.184015
vt -4.478651 9.071296
vt -5.870975 11.123737
vt -4.577077 9.011018
vt -5.969399 11.063457
vt -4.675503 8.950738
vt -6.067825 11.003179
vt -4.773929 8.890459
vt -6.166251 10.942900
vt -4.872355 8.830180
vt -6.264677 10.882620
vt -4.970781 8.769901
vt -6.363104 10.822341
vt -5.069207 8.709621
vt -6.461529 10.762062
vt -5.167633 8.649343
vt -2.889498 7.139449
vt -2.987924 7.079170
vt -3.086350 7.018891
vt -3.184775 6.958612
vt -3.283201 6.898333
vt -3.381627 6.838054
vt -3.480053 6.777774
vt -3.578479 6.717495
vt -3.676905 6.657216
vt -3.775331 6.596937
vt -3.873757 6.536658
vt -1.595623 5.026765
vt -1.694048 4.966486
vt -1.792475 4.906207
vt -1.890900 4.845927
vt -1.989326 4.785648
vt -2.087752 4.725369
vt -2.186177 4.665090
vt -2.284603 4.604811
vt -2.383030 4.544532
vt -2.481455 4.484252
vt -2.579881 4.423974
vt -0.301747 2.914080
vt -0.400172 2.853801
vt -0.498599 2.793521
vt -0.597024 2.733243
vt -0.695450 2.672963
vt -0.793876 2.612684
vt -0.892302 2.552405
vt -0.990727 2.492126
vt -1.089154 2.431847
vt -1.187579 2.371567
vt -1.286005 2.311288
vt 0.992129 0.801394
vt 0.893703 0.741115
vt 0.795277 0.680836
vt 0.696852 0.620557
vt 0.598426 0.560278
vt 0.500000 0.499999
vt 0.401574 0.439720
vt 0.303149 0.379441
vt 0.204722 0.319161
vt 0.106297 0.258882
vt 0.007871 0.198603
vt 2.286005 -1.311290
vt 2.187579 -1.371569
vt 2.089153 -1.431848
vt 1.990727 -1.492127
vt 1.892301 -1.552407
vt 1.793875 -1.612686
vt 1.695450 -1.672965
vt 1.597024 -1.733243
vt 1.498598 -1.793523
vt 1.400172 -1.853802
vt 1.301746 -1.914081
vt 3.579880 -3.423975
vt 3.481455 -3.484254
vt 3.383029 -3.544534
vt 3.284603 -3.604813
vt 3.186177 -3.665092
vt 3.087751 -3.725371
vt 2.989326 -3.785650
vt 2.890900 -3.845929
vt 2.792474 -3.906208
vt 2.694047 -3.966487
vt 2.595622 -4.026766
vt 4.873755 -5.536659
vt 4.775330 -5.596937
vt 4.676904 -5.657217
vt 4.578478 -5.717496
vt 4.480052 -5.777775
vt 4.381626 -5.838055
vt 4.283200 -5.898334
vt 4.184775 -5.958612
vt 4.086349 -6.018892
vt 3.987923 -6.079171
vt 3.889498 -6.139450
vt 6.167631 -7.649343
vt 6.069205 -7.709622
vt 5.970779 -7.769901
vt 5.872354 -7.830181
vt 5.773928 -7.890460
vt 5.675502 -7.950739
vt 5.577077 -8.011019
vt 5.478651 -8.071297
vt 5.380224 -8.131577
vt 5.281798 -8.191855
vt 5.183373 -8.252134
vt 7.461528 -9.762063
vt 7.363102 -9.822342
vt 7.264676 -9.882622
vt 7.166250 -9.942900
vt 7.067824 -10.003180
vt 6.969398 -10.063458
vt 6.870974 -10.123737
vt 6.772547 -10.184016
vt 6.674121 -10.244297
vt 6.575695 -10.304575
vt 6.477270 -10.364854
vn 0.0000 1.0000 0.0000
vn 0.0000 0.9999 -0.0121
vn 0.0000 0.9997 -0.0243
usemtl Default_OBJ.003
s 1
f 1/1/1 2/2/1 3/3/1
f 3/3/1 2/2/1 4/4/1
f 5/5/1 6/6/1 1/1/1
f 1/1/1 6/6/1 2/2/1
f 7/7/1 8/8/1 5/5/1
f 5/5/1 8/8/1 6/6/1
f 9/9/1 10/10/1 7/7/1
f 7/7/1 10/10/1 8/8/1
f 11/11/1 12/12/1 9/9/1
f 9/9/1 12/12/1 10/10/1
f 13/13/1 14/14/1 11/11/1
f 11/11/1 14/14/1 12/12/1
f 15/15/1 16/16/1 13/13/1
f 13/13/1 16/16/1 14/14/1
f 17/17/1 18/18/1 15/15/1
f 15/15/1 18/18/1 16/16/1
f 19/19/1 20/20/1 17/17/1
f 17/17/1 20/20/1 18/18/1
f 21/21/1 22/22/1 19/19/1
f 19/19/1 22/22/1 20/20/1
f 4/4/1 2/2/1 23/23/1
f 23/23/1 2/2/1 24/24/1
f 2/2/1 6/6/1 24/24/1
f 24/24/1 6/6/1 25/25/1
f 6/6/1 8/8/1 25/25/1
f 25/25/1 8/8/1 26/26/1
f 8/8/1 10/10/1 26/26/1
f 26/26/1 10/10/1 27/27/1
f 10/10/1 12/12/1 27/27/1
f 27/27/1 12/12/1 28/28/1
f 12/12/1 14/14/1 28/28/1
f 28/28/1 14/14/1 29/29/1
f 14/14/1 16/16/1 29/29/1
f 29/29/1 16/16/1 30/30/1
f 16/16/1 18/18/1 30/30/1
f 30/30/1 18/18/1 31/31/1
f 18/18/1 20/20/1 31/31/1
f 31/31/1 20/20/1 32/32/1
f 20/20/1 22/22/1 32/32/1
f 32/32/1 22/22/1 33/33/1
f 23/23/1 24/24/1 34/34/1
f 34/34/1 24/24/1 35/35/1
f 24/24/1 25/25/1 35/35/1
f 35/35/1 25/25/1 36/36/1
f 25/25/1 26/26/1 36/36/1
f 36/36/1 26/26/1 37/37/1
f 26/26/1 27/27/1 37/37/1
f 37/37/1 27/27/1 38/38/1
f 27/27/1 28/28/1 38/38/1
f 38/38/1 28/28/1 39/39/1
f 28/28/1 29/29/1 39/39/1
f 39/39/1 29/29/1 40/40/1
f 29/29/1 30/30/1 40/40/1
f 40/40/1 30/30/1 41/41/1
f 30/30/1 31/31/1 41/41/1
f 41/41/1 31/31/1 42/42/1
f 31/31/1 32/32/1 42/42/1
f 42/42/1 32/32/1 43/43/1
f 32/32/1 33/33/1 43/43/1
f 43/43/1 33/33/1 44/44/1
f 34/34/1 35/35/1 45/45/1
f 45/45/1 35/35/1 46/46/1
f 35/35/1 36/36/1 46/46/1
f 46/46/1 36/36/1 47/47/1
f 36/36/1 37/37/1 47/47/1
f 47/47/1 37/37/1 48/48/1
f 37/37/1 38/38/1 48/48/1
f 48/48/1 38/38/1 49/49/1
f 38/38/1 39/39/1 49/49/1
f 49/49/1 39/39/1 50/50/1
f 39/39/1 40/40/1 50/50/1
f 50/50/1 40/40/1 51/51/1
f 40/40/1 41/41/1 51/51/1
f 51/51/1 41/41/1 52/52/1
f 41/41/1 42/42/1 52/52/1
f 52/52/1 42/42/1 53/53/1
f 42/42/1 43/43/1 53/53/1
f 53/53/1 43/43/1 54/54/1
f 43/43/1 44/44/1 54/54/1
f 54/54/1 44/44/1 55/55/1
f 45/45/1 46/46/1 56/56/1
f 56/56/1 46/46/1 57/57/1
f 46/46/1 47/47/1 57/57/1
f 57/57/1 47/47/1 58/58/1
f 47/47/1 48/48/1 58/58/1
f 58/58/1 48/48/1 59/59/1
f 48/48/1 49/49/1 59/59/1
f 59/59/1 49/49/1 60/60/1
f 49/49/1 50/50/1 60/60/1
f 60/60/1 50/50/1 61/61/1
f 50/50/1 51/51/1 61/61/1
f 61/61/1 51/51/1 62/62/1
f 51/51/1 52/52/1 62/62/1
f 62/62/1 52/52/1 63/63/1
f 52/52/1 53/53/1 63/63/1
f 63/63/1 53/53/1 64/64/1
f 53/53/1 54/54/1 64/64/1
f 64/64/1 54/54/1 65/65/1
f 54/54/1 55/55/1 65/65/1
f 65/65/1 55/55/1 66/66/1
f 56/56/1 57/57/1 67/67/1
f 67/67/1 57/57/1 68/68/1
f 57/57/1 58/58/1 68/68/1
f 68/68/1 58/58/1 69/69/1
f 58/58/1 59/59/1 69/69/1
f 69/69/1 59/59/1 70/70/1
f 59/59/1 60/60/1 70/70/1
f 70/70/1 60/60/1 71/71/1
f 60/60/1 61/61/1 71/71/1
f 71/71/1 61/61/1 72/72/1
f 61/61/1 62/62/1 72/72/1
f 72/72/1 62/62/1 73/73/1
f 62/62/1 63/63/1 73/73/1
f 73/73/1 63/63/1 74/74/1
f 63/63/1 64/64/1 74/74/1
f 74/74/1 64/64/1 75/75/1
f 64/64/1 65/65/1 75/75/1
f 75/75/1 65/65/1 76/76/1
f 65/65/1 66/66/1 76/76/1
f 76/76/1 66/66/1 77/77/1
f 67/67/1 68/68/1 78/78/1
f 78/78/1 68/68/1 79/79/1
f 68/68/1 69/69/1 79/79/1
f 79/79/1 69/69/1 80/80/1
f 69/69/1 70/70/1 80/80/1
f 80/80/1 70/70/1 81/81/1
f 70/70/1 71/71/1 81/81/1
f 81/81/1 71/71/1 82/82/1
f 71/71/1 72/72/1 82/82/1
f 82/82/1 72/72/1 83/83/1
f 72/72/1 73/73/1 83/83/1
f 83/83/1 73/73/1 84/84/1
f 73/73/1 74/74/1 84/84/1
f 84/84/1 74/74/1 85/85/1
f 74/74/1 75/75/1 85/85/1
f 85/85/1 75/75/1 86/86/1
f 75/75/1 76/76/1 86/86/1
f 86/86/1 76/76/1 87/87/1
f 76/76/1 77/77/1 87/87/1
f 87/87/1 77/77/1 88/88/1
f 78/78/1 79/79/1 89/89/1
f 89/89/1 79/79/1 90/90/1
f 79/79/1 80/80/1 90/90/1
f 90/90/1 80/80/1 91/91/1
f 80/80/1 81/81/1 91/91/1
f 91/91/1 81/81/1 92/92/1
f 81/81/1 82/82/1 92/92/1
f 92/92/1 82/82/1 93/93/1
f 82/82/1 83/83/1 93/93/1
f 93/93/1 83/83/1 94/94/1
f 83/83/1 84/84/1 94/94/1
f 94/94/1 84/84/1 95/95/1
f 84/84/1 85/85/1 95/95/1
f 95/95/1 85/85/1 96/96/1
f 85/85/1 86/86/1 96/96/1
f 96/96/1 86/86/1 97/97/1
f 86/86/1 87/87/1 97/97/1
f 97/97/1 87/87/1 98/98/1
f 87/87/1 88/88/1 98/98/1
f 98/98/1 88/88/1 99/99/1
f 89/89/1 90/90/1 100/100/2
f 100/100/2 90/90/1 101/101/2
f 90/90/1 91/91/1 101/101/2
f 101/101/2 91/91/1 102/102/2
f 91/91/1 92/92/1 102/102/2
f 102/102/2 92/92/1 103/103/2
f 92/92/1 93/93/1 103/103/2
f 103/103/2 93/93/1 104/104/2
f 93/93/1 94/94/1 104/104/2
f 104/104/2 94/94/1 105/105/2
f 94/94/1 95/95/1 105/105/2
f 105/105/2 95/95/1 106/106/2
f 95/95/1 96/96/1 106/106/2
f 106/106/2 96/96/1 107/107/2
f 96/96/1 97/97/1 107/107/2
f 107/107/2 97/97/1 108/108/2
f 97/97/1 98/98/1 108/108/2
f 108/108/2 98/98/1 109/109/2
f 98/98/1 99/99/1 109/109/2
f 109/109/2 99/99/1 110/110/2
f 100/100/2 101/101/2 111/111/3
f 111/111/3 101/101/2 112/112/3
f 101/101/2 102/102/2 112/112/3
f 112/112/3 102/102/2 113/113/3
f 102/102/2 103/103/2 113/113/3
f 113/113/3 103/103/2 114/114/3
f 103/103/2 104/104/2 114/114/3
f 114/114/3 104/104/2 115/115/3
f 104/104/2 105/105/2 115/115/3
f 115/115/3 105/105/2 116/116/3
f 105/105/2 106/106/2 116/116/3
f 116/116/3 106/106/2 117/117/3
f 106/106/2 107/107/2 117/117/3
f 117/117/3 107/107/2 118/118/3
f 107/107/2 108/108/2 118/118/3
f 118/118/3 108/108/2 119/119/3
f 108/108/2 109/109/2 119/119/3
f 119/119/3 109/109/2 120/120/3
f 109/109/2 110/110/2 120/120/3
f 120/120/3 110/110/2 121/121/3
