# This file uses centimeters as units for non-parametric coordinates.

mtllib dirtalt.mtl
g default
v -0.436644 0.000000 4.120592
v -0.341236 0.000000 4.120592
v -0.245829 0.000000 4.120592
v -0.150422 0.000000 4.120592
v -0.055014 0.000000 4.120592
v 0.040393 0.000000 4.120592
v 0.135801 0.000000 4.120592
v 0.231208 0.000000 4.120592
v 0.326616 0.000000 4.120592
v 0.422023 0.000000 4.120592
v 0.517430 0.000000 4.120592
v -0.500000 0.000000 2.741628
v -0.400000 0.000000 2.741628
v -0.300000 0.000000 2.741628
v -0.200000 0.000000 2.741628
v -0.100000 0.000000 2.741628
v -0.000000 0.000000 2.741628
v 0.100000 0.000000 2.741628
v 0.200000 0.000000 2.741628
v 0.300000 0.000000 2.741628
v 0.400000 0.000000 2.741628
v 0.500000 0.000000 2.741628
v -0.500000 0.000000 1.383921
v -0.400000 0.000000 1.383921
v -0.300000 0.000000 1.383921
v -0.200000 0.000000 1.383921
v -0.100000 0.000000 1.383921
v -0.000000 0.000000 1.383921
v 0.100000 0.000000 1.383921
v 0.200000 0.000000 1.383921
v 0.300000 0.000000 1.383921
v 0.400000 0.000000 1.383921
v 0.500000 0.000000 1.383921
v -0.500000 0.000000 0.026214
v -0.400000 0.000000 0.026214
v -0.300000 0.000000 0.026214
v -0.200000 0.000000 0.026214
v -0.100000 0.000000 0.026214
v -0.000000 0.000000 0.026214
v 0.100000 0.000000 0.026214
v 0.200000 0.000000 0.026214
v 0.300000 0.000000 0.026214
v 0.400000 0.000000 0.026214
v 0.500000 0.000000 0.026214
v -0.500000 0.000000 -1.331493
v -0.400000 0.000000 -1.331493
v -0.300000 0.000000 -1.331493
v -0.200000 0.000000 -1.331493
v -0.100000 0.000000 -1.331493
v -0.000000 0.000000 -1.331493
v 0.100000 0.000000 -1.331493
v 0.200000 0.000000 -1.331493
v 0.300000 0.000000 -1.331493
v 0.400000 0.000000 -1.331493
v 0.500000 0.000000 -1.331493
v -0.500000 0.000000 -2.689200
v -0.400000 0.000000 -2.689200
v -0.300000 0.000000 -2.689200
v -0.200000 0.000000 -2.689200
v -0.100000 0.000000 -2.689200
v -0.000000 0.000000 -2.689200
v 0.100000 0.000000 -2.689200
v 0.200000 0.000000 -2.689200
v 0.300000 0.000000 -2.689200
v 0.400000 0.000000 -2.689200
v 0.500000 0.000000 -2.689200
v -0.500000 0.000000 -4.046908
v -0.400000 0.000000 -4.046908
v -0.300000 0.000000 -4.046908
v -0.200000 0.000000 -4.046908
v -0.100000 0.000000 -4.046908
v -0.000000 0.000000 -4.046908
v 0.100000 0.000000 -4.046908
v 0.200000 0.000000 -4.046908
v 0.300000 0.000000 -4.046908
v 0.400000 0.000000 -4.046908
v 0.500000 0.000000 -4.046908
v -0.500000 0.000000 -5.404615
v -0.400000 0.000000 -5.404615
v -0.300000 0.000000 -5.404615
v -0.200000 0.000000 -5.404615
v -0.100000 0.000000 -5.404615
v -0.000000 0.000000 -5.404615
v 0.100000 0.000000 -5.404615
v 0.200000 0.000000 -5.404615
v 0.300000 0.000000 -5.404615
v 0.400000 0.000000 -5.404615
v 0.500000 0.000000 -5.404615
v -0.500000 0.000000 -6.762322
v -0.400000 0.000000 -6.762322
v -0.300000 0.000000 -6.762322
v -0.200000 0.000000 -6.762322
v -0.100000 0.000000 -6.762322
v -0.000000 0.000000 -6.762322
v 0.100000 0.000000 -6.762322
v 0.200000 0.000000 -6.762322
v 0.300000 0.000000 -6.762322
v 0.400000 0.000000 -6.762322
v 0.500000 0.000000 -6.762322
v -0.500000 0.000000 -8.120029
v -0.400000 0.000000 -8.120029
v -0.300000 0.000000 -8.120029
v -0.200000 0.000000 -8.120029
v -0.100000 0.000000 -8.120029
v -0.000000 0.000000 -8.120029
v 0.100000 0.000000 -8.120029
v 0.200000 0.000000 -8.120029
v 0.300000 0.000000 -8.120029
v 0.400000 0.000000 -8.120029
v 0.500000 0.000000 -8.120029
v -0.500000 -0.031167 -9.477736
v -0.400000 -0.031167 -9.477736
v -0.300000 -0.031167 -9.477736
v -0.200000 -0.031167 -9.477736
v -0.100000 -0.031167 -9.477736
v -0.000000 -0.031167 -9.477736
v 0.100000 -0.031167 -9.477736
v 0.200000 -0.031167 -9.477736
v 0.300000 -0.031167 -9.477736
v 0.400000 -0.031167 -9.477736
v 0.500000 -0.031167 -9.477736
vt -5.477271 11.364853
vt -5.575696 11.304575
vt -4.281800 9.191854
vt -4.183374 9.252134
vt -5.674123 11.244295
vt -4.380226 9.131576
vt -2.987924 7.079170
vt -2.889498 7.139449
vt -5.772548 11.184015
vt -4.478651 9.071296
vt -3.086350 7.018891
vt -1.694048 4.966486
vt -1.595623 5.026765
vt -5.870975 11.123737
vt -4.577077 9.011018
vt -3.184775 6.958612
vt -1.792475 4.906207
vt -0.400172 2.853801
vt -0.301747 2.914080
vt -5.969399 11.063457
vt -4.675503 8.950738
vt -3.283201 6.898333
vt -1.890900 4.845927
vt -0.498599 2.793521
vt 0.893703 0.741115
vt 0.992129 0.801394
vt -6.067825 11.003179
vt -4.773929 8.890459
vt -3.381627 6.838054
vt -1.989326 4.785648
vt -0.597024 2.733243
vt 0.795277 0.680836
vt 2.187579 -1.371569
vt 2.286005 -1.311290
vt -6.166251 10.942900
vt -4.872355 8.830180
vt -3.480053 6.777774
vt -2.087752 4.725369
vt -0.695450 2.672963
vt 0.696852 0.620557
vt 2.089153 -1.431848
vt 3.481455 -3.484254
vt 3.579880 -3.423975
vt -6.264677 10.882620
vt -4.970781 8.769901
vt -3.578479 6.717495
vt -2.186177 4.665090
vt -0.793876 2.612684
vt 0.598426 0.560278
vt 1.990727 -1.492127
vt 3.383029 -3.544534
vt 4.775330 -5.596937
vt 4.873755 -5.536659
vt -6.363104 10.822341
vt -5.069207 8.709621
vt -3.676905 6.657216
vt -2.284603 4.604811
vt -0.892302 2.552405
vt 0.500000 0.499999
vt 1.892301 -1.552407
vt 3.284603 -3.604813
vt 4.676904 -5.657217
vt 6.069205 -7.709622
vt 6.167631 -7.649343
vt -6.461529 10.762062
vt -5.167633 8.649343
vt -3.775331 6.596937
vt -2.383030 4.544532
vt -0.990727 2.492126
vt 0.401574 0.439720
vt 1.793875 -1.612686
vt 3.186177 -3.665092
vt 4.578478 -5.717496
vt 5.970779 -7.769901
vt 7.363102 -9.822342
vt 7.461528 -9.762063
vt -3.873757 6.536658
vt -2.481455 4.484252
vt -1.089154 2.431847
vt 0.303149 0.379441
vt 1.695450 -1.672965
vt 3.087751 -3.725371
vt 4.480052 -5.777775
vt 5.872354 -7.830181
vt 7.264676 -9.882622
vt -2.579881 4.423974
vt -1.187579 2.371567
vt 0.204722 0.319161
vt 1.597024 -1.733243
vt 2.989326 -3.785650
vt 4.381626 -5.838055
vt 5.773928 -7.890460
vt 7.166250 -9.942900
vt -1.286005 2.311288
vt 0.106297 0.258882
vt 1.498598 -1.793523
vt 2.890900 -3.845929
vt 4.283200 -5.898334
vt 5.675502 -7.950739
vt 7.067824 -10.003180
vt 0.007871 0.198603
vt 1.400172 -1.853802
vt 2.792474 -3.906208
vt 4.184775 -5.958612
vt 5.577077 -8.011019
vt 6.969398 -10.063458
vt 1.301746 -1.914081
vt 2.694047 -3.966487
vt 4.086349 -6.018892
vt 5.478651 -8.071297
vt 6.870974 -10.123737
vt 2.595622 -4.026766
vt 3.987923 -6.079171
vt 5.380224 -8.131577
vt 6.772547 -10.184016
vt 3.889498 -6.139450
vt 5.281798 -8.191855
vt 6.674121 -10.244297
vt 5.183373 -8.252134
vt 6.575695 -10.304575
vt 6.477270 -10.364854
vn 0.000000 1.000000 0.000000
vn 0.000000 1.000000 0.000000
vn 0.000000 1.000000 0.000000
vn 0.000000 1.000000 0.000000
vn 0.000000 1.000000 0.000000
vn 0.000000 1.000000 0.000000
vn 0.000000 1.000000 0.000000
vn 0.000000 1.000000 0.000000
vn 0.000000 1.000000 0.000000
vn 0.000000 1.000000 0.000000
vn 0.000000 1.000000 0.000000
vn 0.000000 1.000000 0.000000
vn 0.000000 1.000000 0.000000
vn 0.000000 1.000000 0.000000
vn 0.000000 1.000000 0.000000
vn 0.000000 1.000000 0.000000
vn 0.000000 1.000000 0.000000
vn 0.000000 1.000000 0.000000
vn 0.000000 1.000000 0.000000
vn 0.000000 1.000000 0.000000
vn 0.000000 1.000000 0.000000
vn 0.000000 1.000000 0.000000
vn 0.000000 1.000000 0.000000
vn 0.000000 1.000000 0.000000
vn 0.000000 1.000000 0.000000
vn 0.000000 1.000000 0.000000
vn 0.000000 1.000000 0.000000
vn 0.000000 1.000000 0.000000
vn 0.000000 1.000000 0.000000
vn 0.000000 1.000000 0.000000
vn 0.000000 1.000000 0.000000
vn 0.000000 1.000000 0.000000
vn 0.000000 1.000000 0.000000
vn 0.000000 1.000000 0.000000
vn 0.000000 1.000000 0.000000
vn 0.000000 1.000000 0.000000
vn 0.000000 1.000000 0.000000
vn 0.000000 1.000000 0.000000
vn 0.000000 1.000000 0.000000
vn 0.000000 1.000000 0.000000
vn 0.000000 1.000000 0.000000
vn 0.000000 1.000000 0.000000
vn 0.000000 1.000000 0.000000
vn 0.000000 1.000000 0.000000
vn 0.000000 1.000000 0.000000
vn 0.000000 1.000000 0.000000
vn 0.000000 1.000000 0.000000
vn 0.000000 1.000000 0.000000
vn 0.000000 1.000000 0.000000
vn 0.000000 1.000000 0.000000
vn 0.000000 1.000000 0.000000
vn 0.000000 1.000000 0.000000
vn 0.000000 1.000000 0.000000
vn 0.000000 1.000000 0.000000
vn 0.000000 1.000000 0.000000
vn 0.000000 1.000000 0.000000
vn 0.000000 1.000000 0.000000
vn 0.000000 1.000000 0.000000
vn 0.000000 1.000000 0.000000
vn 0.000000 1.000000 0.000000
vn 0.000000 1.000000 0.000000
vn 0.000000 1.000000 0.000000
vn 0.000000 1.000000 0.000000
vn 0.000000 1.000000 0.000000
vn 0.000000 1.000000 0.000000
vn 0.000000 1.000000 0.000000
vn 0.000000 1.000000 0.000000
vn 0.000000 1.000000 0.000000
vn 0.000000 1.000000 0.000000
vn 0.000000 1.000000 0.000000
vn 0.000000 1.000000 0.000000
vn 0.000000 1.000000 0.000000
vn 0.000000 1.000000 0.000000
vn 0.000000 1.000000 0.000000
vn 0.000000 1.000000 0.000000
vn 0.000000 1.000000 0.000000
vn 0.000000 1.000000 0.000000
vn 0.000000 1.000000 0.000000
vn 0.000000 1.000000 0.000000
vn 0.000000 1.000000 0.000000
vn 0.000000 1.000000 0.000000
vn 0.000000 1.000000 0.000000
vn 0.000000 1.000000 0.000000
vn 0.000000 1.000000 0.000000
vn 0.000000 1.000000 0.000000
vn 0.000000 1.000000 0.000000
vn 0.000000 1.000000 0.000000
vn 0.000000 1.000000 0.000000
vn 0.000000 1.000000 0.000000
vn 0.000000 1.000000 0.000000
vn 0.000000 1.000000 0.000000
vn 0.000000 1.000000 0.000000
vn 0.000000 1.000000 0.000000
vn 0.000000 1.000000 0.000000
vn 0.000000 1.000000 0.000000
vn 0.000000 1.000000 0.000000
vn 0.000000 1.000000 0.000000
vn 0.000000 1.000000 0.000000
vn 0.000000 1.000000 0.000000
vn 0.000000 0.999934 -0.011477
vn 0.000000 0.999934 -0.011477
vn 0.000000 0.999934 -0.011477
vn 0.000000 0.999934 -0.011477
vn 0.000000 0.999934 -0.011477
vn 0.000000 0.999934 -0.011477
vn 0.000000 0.999934 -0.011477
vn 0.000000 0.999934 -0.011477
vn 0.000000 0.999934 -0.011477
vn 0.000000 0.999934 -0.011477
vn 0.000000 0.999934 -0.011477
vn 0.000000 0.999737 -0.022950
vn 0.000000 0.999737 -0.022950
vn 0.000000 0.999737 -0.022950
vn 0.000000 0.999737 -0.022950
vn 0.000000 0.999737 -0.022950
vn 0.000000 0.999737 -0.022950
vn 0.000000 0.999737 -0.022950
vn 0.000000 0.999737 -0.022950
vn 0.000000 0.999737 -0.022950
vn 0.000000 0.999737 -0.022950
vn 0.000000 0.999737 -0.022950
s 1
g Dirt_Path
usemtl lambert34SG
f 1/1/1 2/2/2 13/3/3 12/4/4
f 2/2/2 3/5/5 14/6/6 13/3/3
f 3/5/5 4/9/7 15/10/8 14/6/6
f 4/9/7 5/14/9 16/15/10 15/10/8
f 5/14/9 6/20/11 17/21/12 16/15/10
f 6/20/11 7/27/13 18/28/14 17/21/12
f 7/27/13 8/35/15 19/36/16 18/28/14
f 8/35/15 9/44/17 20/45/18 19/36/16
f 9/44/17 10/54/19 21/55/20 20/45/18
f 10/54/19 11/65/21 22/66/22 21/55/20
f 12/4/4 13/3/3 24/7/23 23/8/24
f 13/3/3 14/6/6 25/11/25 24/7/23
f 14/6/6 15/10/8 26/16/26 25/11/25
f 15/10/8 16/15/10 27/22/27 26/16/26
f 16/15/10 17/21/12 28/29/28 27/22/27
f 17/21/12 18/28/14 29/37/29 28/29/28
f 18/28/14 19/36/16 30/46/30 29/37/29
f 19/36/16 20/45/18 31/56/31 30/46/30
f 20/45/18 21/55/20 32/67/32 31/56/31
f 21/55/20 22/66/22 33/77/33 32/67/32
f 23/8/24 24/7/23 35/12/34 34/13/35
f 24/7/23 25/11/25 36/17/36 35/12/34
f 25/11/25 26/16/26 37/23/37 36/17/36
f 26/16/26 27/22/27 38/30/38 37/23/37
f 27/22/27 28/29/28 39/38/39 38/30/38
f 28/29/28 29/37/29 40/47/40 39/38/39
f 29/37/29 30/46/30 41/57/41 40/47/40
f 30/46/30 31/56/31 42/68/42 41/57/41
f 31/56/31 32/67/32 43/78/43 42/68/42
f 32/67/32 33/77/33 44/86/44 43/78/43
f 34/13/35 35/12/34 46/18/45 45/19/46
f 35/12/34 36/17/36 47/24/47 46/18/45
f 36/17/36 37/23/37 48/31/48 47/24/47
f 37/23/37 38/30/38 49/39/49 48/31/48
f 38/30/38 39/38/39 50/48/50 49/39/49
f 39/38/39 40/47/40 51/58/51 50/48/50
f 40/47/40 41/57/41 52/69/52 51/58/51
f 41/57/41 42/68/42 53/79/53 52/69/52
f 42/68/42 43/78/43 54/87/54 53/79/53
f 43/78/43 44/86/44 55/94/55 54/87/54
f 45/19/46 46/18/45 57/25/56 56/26/57
f 46/18/45 47/24/47 58/32/58 57/25/56
f 47/24/47 48/31/48 59/40/59 58/32/58
f 48/31/48 49/39/49 60/49/60 59/40/59
f 49/39/49 50/48/50 61/59/61 60/49/60
f 50/48/50 51/58/51 62/70/62 61/59/61
f 51/58/51 52/69/52 63/80/63 62/70/62
f 52/69/52 53/79/53 64/88/64 63/80/63
f 53/79/53 54/87/54 65/95/65 64/88/64
f 54/87/54 55/94/55 66/101/66 65/95/65
f 56/26/57 57/25/56 68/33/67 67/34/68
f 57/25/56 58/32/58 69/41/69 68/33/67
f 58/32/58 59/40/59 70/50/70 69/41/69
f 59/40/59 60/49/60 71/60/71 70/50/70
f 60/49/60 61/59/61 72/71/72 71/60/71
f 61/59/61 62/70/62 73/81/73 72/71/72
f 62/70/62 63/80/63 74/89/74 73/81/73
f 63/80/63 64/88/64 75/96/75 74/89/74
f 64/88/64 65/95/65 76/102/76 75/96/75
f 65/95/65 66/101/66 77/107/77 76/102/76
f 67/34/68 68/33/67 79/42/78 78/43/79
f 68/33/67 69/41/69 80/51/80 79/42/78
f 69/41/69 70/50/70 81/61/81 80/51/80
f 70/50/70 71/60/71 82/72/82 81/61/81
f 71/60/71 72/71/72 83/82/83 82/72/82
f 72/71/72 73/81/73 84/90/84 83/82/83
f 73/81/73 74/89/74 85/97/85 84/90/84
f 74/89/74 75/96/75 86/103/86 85/97/85
f 75/96/75 76/102/76 87/108/87 86/103/86
f 76/102/76 77/107/77 88/112/88 87/108/87
f 78/43/79 79/42/78 90/52/89 89/53/90
f 79/42/78 80/51/80 91/62/91 90/52/89
f 80/51/80 81/61/81 92/73/92 91/62/91
f 81/61/81 82/72/82 93/83/93 92/73/92
f 82/72/82 83/82/83 94/91/94 93/83/93
f 83/82/83 84/90/84 95/98/95 94/91/94
f 84/90/84 85/97/85 96/104/96 95/98/95
f 85/97/85 86/103/86 97/109/97 96/104/96
f 86/103/86 87/108/87 98/113/98 97/109/97
f 87/108/87 88/112/88 99/116/99 98/113/98
f 89/53/90 90/52/89 101/63/100 100/64/101
f 90/52/89 91/62/91 102/74/102 101/63/100
f 91/62/91 92/73/92 103/84/103 102/74/102
f 92/73/92 93/83/93 104/92/104 103/84/103
f 93/83/93 94/91/94 105/99/105 104/92/104
f 94/91/94 95/98/95 106/105/106 105/99/105
f 95/98/95 96/104/96 107/110/107 106/105/106
f 96/104/96 97/109/97 108/114/108 107/110/107
f 97/109/97 98/113/98 109/117/109 108/114/108
f 98/113/98 99/116/99 110/119/110 109/117/109
f 100/64/101 101/63/100 112/75/111 111/76/112
f 101/63/100 102/74/102 113/85/113 112/75/111
f 102/74/102 103/84/103 114/93/114 113/85/113
f 103/84/103 104/92/104 115/100/115 114/93/114
f 104/92/104 105/99/105 116/106/116 115/100/115
f 105/99/105 106/105/106 117/111/117 116/106/116
f 106/105/106 107/110/107 118/115/118 117/111/117
f 107/110/107 108/114/108 119/118/119 118/115/118
f 108/114/108 109/117/109 120/120/120 119/118/119
f 109/117/109 110/119/110 121/121/121 120/120/120
