# Blender v2.82 (sub 7) OBJ File: ''
# www.blender.org
mtllib door.mtl
o door
v 7.148602 -4.646824 4.271502
v 8.064748 -4.646824 4.271502
v 8.064748 -3.186686 4.271502
v 7.148602 -3.186686 4.271502
v 8.064748 -3.186686 4.220170
v 7.148602 -3.186686 4.220170
v 8.064748 -4.646824 4.220170
v 7.148602 -4.646824 4.220170
v 7.107331 -4.645931 4.268625
v 7.169059 -4.645931 4.268625
v 7.169059 -3.186388 4.268625
v 7.107331 -3.186388 4.268625
v 7.169059 -3.186388 4.215382
v 7.107331 -3.186388 4.215382
v 7.169059 -4.645931 4.215382
v 7.107331 -4.645931 4.215382
v 8.057331 -4.645931 4.268625
v 8.057331 -4.645931 4.215382
v 8.057331 -3.186388 4.215382
v 8.057331 -3.186388 4.268625
v 8.027721 -4.645931 4.215382
v 8.027721 -4.645931 4.268625
v 8.027721 -3.186388 4.268625
v 8.027721 -3.186388 4.215382
v 7.998113 -4.645931 4.215382
v 7.998113 -4.645931 4.268625
v 7.998113 -3.186388 4.268625
v 7.998113 -3.186388 4.215382
v 7.968503 -4.645931 4.215382
v 7.968503 -4.645931 4.268625
v 7.968503 -3.186388 4.268625
v 7.968503 -3.186388 4.215382
v 7.921842 -4.645931 4.215382
v 7.921842 -4.645931 4.268625
v 7.938895 -3.186388 4.268625
v 7.938895 -3.186388 4.215382
v 7.879676 -4.645931 4.215382
v 7.892233 -4.645931 4.215382
v 7.892233 -4.645931 4.268625
v 7.879676 -4.645931 4.268625
v 7.879676 -3.186388 4.268625
v 7.909286 -3.186388 4.268625
v 7.909286 -3.186388 4.215382
v 7.879676 -3.186388 4.215382
v 7.850067 -4.645931 4.215382
v 7.850067 -4.645931 4.268625
v 7.850067 -3.186388 4.268625
v 7.850067 -3.186388 4.215382
v 7.820457 -4.645931 4.215382
v 7.820457 -4.645931 4.268625
v 7.820457 -3.186388 4.268625
v 7.820457 -3.186388 4.215382
v 7.790849 -4.645931 4.215382
v 7.790849 -4.645931 4.268625
v 7.790849 -3.186388 4.268625
v 7.790849 -3.186388 4.215382
v 7.744186 -4.645931 4.215382
v 7.744186 -4.645931 4.268625
v 7.761240 -3.186388 4.268625
v 7.761240 -3.186388 4.215382
v 7.702022 -4.645931 4.215382
v 7.714578 -4.645931 4.215382
v 7.714578 -4.645931 4.268625
v 7.702022 -4.645931 4.268625
v 7.702022 -3.186388 4.268625
v 7.731631 -3.186388 4.268625
v 7.731631 -3.186388 4.215382
v 7.702022 -3.186388 4.215382
v 7.672413 -4.645931 4.215382
v 7.672413 -4.645931 4.268625
v 7.672413 -3.186388 4.268625
v 7.672413 -3.186388 4.215382
v 7.642804 -4.645931 4.215382
v 7.642804 -4.645931 4.268625
v 7.642804 -3.186388 4.268625
v 7.642804 -3.186388 4.215382
v 7.613194 -4.645931 4.215382
v 7.613194 -4.645931 4.268625
v 7.613194 -3.186388 4.268625
v 7.613194 -3.186388 4.215382
v 7.566533 -4.645931 4.215382
v 7.566533 -4.645931 4.268625
v 7.566533 -3.186388 4.268625
v 7.566533 -3.186388 4.215382
v 7.524367 -4.645931 4.215382
v 7.536923 -4.645931 4.215382
v 7.536923 -4.645931 4.268625
v 7.524367 -4.645931 4.268625
v 7.524367 -3.186388 4.268625
v 7.536923 -3.186388 4.268625
v 7.536923 -3.186388 4.215382
v 7.524367 -3.186388 4.215382
v 7.494758 -4.645931 4.215382
v 7.494758 -4.645931 4.268625
v 7.494758 -3.186388 4.268625
v 7.494758 -3.186388 4.215382
v 7.465148 -4.645931 4.215382
v 7.465148 -4.645931 4.268625
v 7.465148 -3.186388 4.268625
v 7.465148 -3.186388 4.215382
v 7.435540 -4.645931 4.215382
v 7.435540 -4.645931 4.268625
v 7.435540 -3.186388 4.268625
v 7.435540 -3.186388 4.215382
v 7.388878 -4.645931 4.215382
v 7.388878 -4.645931 4.268625
v 7.388878 -3.186388 4.268625
v 7.388878 -3.186388 4.215382
v 7.346713 -4.645931 4.215382
v 7.359269 -4.645931 4.215382
v 7.359269 -4.645931 4.268625
v 7.346713 -4.645931 4.268625
v 7.346713 -3.186388 4.268625
v 7.359269 -3.186388 4.268625
v 7.359269 -3.186388 4.215382
v 7.346713 -3.186388 4.215382
v 7.317103 -4.645931 4.215382
v 7.317103 -4.645931 4.268625
v 7.317103 -3.186388 4.268625
v 7.317103 -3.186388 4.215382
v 7.287495 -4.645931 4.215382
v 7.287495 -4.645931 4.268625
v 7.287495 -3.186388 4.268625
v 7.287495 -3.186388 4.215382
v 7.240833 -4.645931 4.215382
v 7.240833 -4.645931 4.268625
v 7.240833 -3.186388 4.268625
v 7.240833 -3.186388 4.215382
v 7.198668 -4.645931 4.215382
v 7.211224 -4.645931 4.215382
v 7.211224 -4.645931 4.268625
v 7.198668 -4.645931 4.268625
v 7.198668 -3.186388 4.268625
v 7.211224 -3.186388 4.268625
v 7.211224 -3.186388 4.215382
v 7.198668 -3.186388 4.215382
v 8.057181 -4.407988 4.214404
v 8.057181 -4.296114 4.214404
v 7.107123 -4.296114 4.214404
v 7.107123 -4.407988 4.214404
v 7.107123 -4.296114 4.186854
v 7.107123 -4.407988 4.186854
v 8.057181 -4.296114 4.186854
v 8.057181 -4.407988 4.186854
v 8.057181 -3.590017 4.214931
v 8.057181 -3.478144 4.214931
v 7.107123 -3.478144 4.214931
v 7.107123 -3.590017 4.214931
v 7.107123 -3.478144 4.187381
v 7.107123 -3.590017 4.187381
v 8.057181 -3.478144 4.187381
v 8.057181 -3.590017 4.187381
v 7.955256 -4.147392 4.215282
v 8.022188 -4.147392 4.215282
v 8.022188 -3.757774 4.215282
v 7.955256 -3.757774 4.215282
v 8.022188 -3.757774 4.187732
v 7.955256 -3.757774 4.187732
v 8.022188 -4.147392 4.187732
v 7.955256 -4.147392 4.187732
vt 0.625000 0.000000
vt 0.375000 0.250000
vt 0.375000 0.000000
vt 0.625000 0.250000
vt 0.375000 0.500000
vt 0.625000 0.500000
vt 0.375000 0.750000
vt 0.625000 0.750000
vt 0.375000 1.000000
vt 0.875000 0.000000
vt 0.125000 0.250000
vt 0.125000 0.000000
vt 0.625000 1.000000
vt 0.875000 0.250000
vt 0.875000 0.000000
vt 0.625000 0.250000
vt 0.625000 0.000000
vt 0.375000 0.000000
vt 0.125000 0.250000
vt 0.125000 0.000000
vt 0.584677 0.250000
vt 0.584677 0.500000
vt 0.592742 0.750000
vt 0.536290 0.250000
vt 0.536290 0.500000
vt 0.544355 0.750000
vt 0.495968 0.250000
vt 0.487903 1.000000
vt 0.487903 0.500000
vt 0.447581 0.250000
vt 0.439516 1.000000
vt 0.439516 0.500000
vt 0.407258 0.250000
vt 0.399194 1.000000
vt 0.399194 0.500000
vt 0.625000 0.000000
vt 0.375000 0.250000
vt 0.375000 0.000000
vt 0.625000 0.250000
vt 0.375000 0.500000
vt 0.625000 0.500000
vt 0.375000 0.750000
vt 0.625000 0.750000
vt 0.375000 1.000000
vt 0.875000 0.000000
vt 0.125000 0.250000
vt 0.125000 0.000000
vt 0.625000 0.000000
vt 0.375000 0.250000
vt 0.375000 0.000000
vt 0.625000 0.250000
vt 0.375000 0.500000
vt 0.625000 0.500000
vt 0.375000 0.750000
vt 0.625000 0.750000
vt 0.375000 1.000000
vt 0.875000 0.000000
vt 0.125000 0.250000
vt 0.125000 0.000000
vt 0.625000 0.000000
vt 0.375000 0.250000
vt 0.375000 0.000000
vt 0.625000 0.250000
vt 0.375000 0.500000
vt 0.625000 0.500000
vt 0.375000 0.750000
vt 0.625000 0.750000
vt 0.375000 1.000000
vt 0.875000 0.000000
vt 0.125000 0.250000
vt 0.125000 0.000000
vt 0.875000 0.250000
vt 0.375000 0.250000
vt 0.592742 0.000000
vt 0.592742 0.250000
vt 0.584677 1.000000
vt 0.584677 0.750000
vt 0.592742 0.500000
vt 0.544355 0.000000
vt 0.544355 0.250000
vt 0.536290 1.000000
vt 0.536290 0.750000
vt 0.544355 0.500000
vt 0.495968 0.750000
vt 0.495968 0.000000
vt 0.487903 0.250000
vt 0.495968 0.500000
vt 0.487903 0.750000
vt 0.447581 0.750000
vt 0.447581 0.000000
vt 0.439516 0.250000
vt 0.447581 0.500000
vt 0.439516 0.750000
vt 0.407258 0.750000
vt 0.407258 0.000000
vt 0.399194 0.250000
vt 0.407258 0.500000
vt 0.399194 0.750000
vt 0.625000 1.000000
vt 0.875000 0.250000
vt 0.625000 1.000000
vt 0.875000 0.250000
vt 0.625000 1.000000
vt 0.875000 0.250000
vt 0.383065 0.000000
vt 0.383065 0.250000
vt 0.375000 0.500000
vt 0.383065 0.500000
vt 0.375000 0.750000
vt 0.383065 0.750000
vt 0.375000 1.000000
vt 0.625000 0.750000
vt 0.616935 1.000000
vt 0.616935 0.750000
vt 0.616935 0.000000
vt 0.616935 0.250000
vt 0.625000 0.500000
vt 0.616935 0.500000
vt 0.608871 1.000000
vt 0.608871 0.750000
vt 0.608871 0.000000
vt 0.608871 0.250000
vt 0.608871 0.500000
vt 0.600806 1.000000
vt 0.600806 0.750000
vt 0.600806 0.000000
vt 0.600806 0.250000
vt 0.600806 0.500000
vt 0.592742 1.000000
vt 0.576613 1.000000
vt 0.576613 0.750000
vt 0.576613 0.250000
vt 0.584677 0.000000
vt 0.576613 0.500000
vt 0.568548 1.000000
vt 0.568548 0.750000
vt 0.568548 0.000000
vt 0.568548 0.250000
vt 0.568548 0.500000
vt 0.560484 1.000000
vt 0.560484 0.750000
vt 0.560484 0.000000
vt 0.560484 0.250000
vt 0.560484 0.500000
vt 0.552419 1.000000
vt 0.552419 0.750000
vt 0.552419 0.000000
vt 0.552419 0.250000
vt 0.552419 0.500000
vt 0.544355 1.000000
vt 0.528226 1.000000
vt 0.528226 0.750000
vt 0.528226 0.250000
vt 0.536290 0.000000
vt 0.528226 0.500000
vt 0.520161 1.000000
vt 0.520161 0.750000
vt 0.520161 0.000000
vt 0.520161 0.250000
vt 0.520161 0.500000
vt 0.512097 1.000000
vt 0.512097 0.750000
vt 0.512097 0.000000
vt 0.512097 0.250000
vt 0.512097 0.500000
vt 0.504032 1.000000
vt 0.504032 0.750000
vt 0.504032 0.000000
vt 0.504032 0.250000
vt 0.504032 0.500000
vt 0.495968 1.000000
vt 0.479839 1.000000
vt 0.479839 0.750000
vt 0.479839 0.000000
vt 0.479839 0.250000
vt 0.479839 0.500000
vt 0.471774 1.000000
vt 0.471774 0.750000
vt 0.471774 0.000000
vt 0.471774 0.250000
vt 0.471774 0.500000
vt 0.463710 1.000000
vt 0.463710 0.750000
vt 0.463710 0.000000
vt 0.463710 0.250000
vt 0.463710 0.500000
vt 0.455645 1.000000
vt 0.455645 0.750000
vt 0.455645 0.000000
vt 0.455645 0.250000
vt 0.455645 0.500000
vt 0.447581 1.000000
vt 0.431452 1.000000
vt 0.431452 0.750000
vt 0.431452 0.000000
vt 0.431452 0.250000
vt 0.431452 0.500000
vt 0.423387 1.000000
vt 0.423387 0.750000
vt 0.423387 0.000000
vt 0.423387 0.250000
vt 0.423387 0.500000
vt 0.415323 1.000000
vt 0.415323 0.750000
vt 0.415323 0.000000
vt 0.415323 0.250000
vt 0.415323 0.500000
vt 0.407258 1.000000
vt 0.391129 1.000000
vt 0.391129 0.750000
vt 0.391129 0.000000
vt 0.391129 0.250000
vt 0.391129 0.500000
vt 0.383065 1.000000
vt 0.625000 1.000000
vt 0.576613 0.000000
vt 0.528226 0.000000
vt 0.487903 0.000000
vt 0.439516 0.000000
vt 0.399194 0.000000
vn 0.0000 0.0000 1.0000
vn 0.0000 1.0000 0.0000
vn 0.0000 0.0000 -1.0000
vn 0.0000 -1.0000 0.0000
vn 1.0000 0.0000 0.0000
vn -1.0000 0.0000 0.0000
vn 0.9252 -0.1481 0.3494
vn 0.9208 0.3615 0.1464
vn 0.9238 0.0114 -0.3826
vn -0.8726 0.3702 0.3187
vn -0.6213 0.0166 0.7834
vn -0.9798 -0.1384 0.1445
vn -0.3826 -0.0014 -0.9239
vn 0.3522 -0.1495 -0.9239
vn 0.1457 0.3538 -0.9239
vn -0.9237 0.0213 -0.3825
vn -0.9221 0.1572 0.3535
vn -0.9280 -0.3440 0.1432
vn -0.3526 -0.1487 0.9239
vn -0.1454 0.3540 0.9239
vn 0.3826 -0.0025 0.9239
vn -0.9197 0.3656 -0.1432
vn -0.9240 0.0003 0.3825
vn -0.9255 -0.1356 -0.3535
vn 0.9225 0.1640 -0.3494
vn 0.9269 -0.3456 -0.1464
vn 0.9239 0.0045 0.3826
vn 0.9239 0.1560 -0.3494
vn 0.9239 -0.3535 -0.1464
vn 0.9239 -0.0035 0.3826
vn 0.3513 -0.1518 -0.9239
vn 0.1464 0.3535 -0.9239
vn -0.3826 0.0019 -0.9239
vn 0.9239 0.3535 0.1464
vn 0.9239 0.0035 -0.3826
vn 0.9239 -0.1560 0.3494
vn -0.9239 0.1560 0.3494
vn -0.9239 -0.3535 0.1464
vn -0.9239 -0.0035 -0.3826
vn -0.2738 0.9239 0.2673
vn -0.1464 0.9239 -0.3535
vn 0.3796 0.9239 -0.0484
usemtl lambert22SG
s off
f 2/1/1 4/2/1 1/3/1
f 3/4/2 6/5/2 4/2/2
f 5/6/3 8/7/3 6/5/3
f 7/8/4 1/9/4 8/7/4
f 7/10/5 3/4/5 2/1/5
f 1/3/6 6/11/6 8/12/6
f 2/1/1 3/4/1 4/2/1
f 3/4/2 5/6/2 6/5/2
f 5/6/3 7/8/3 8/7/3
f 7/8/4 2/13/4 1/9/4
f 7/10/5 5/14/5 3/4/5
f 1/3/6 4/2/6 6/11/6
usemtl lambert18SG.001
f 18/15/5 20/16/5 17/17/5
f 9/18/6 14/19/6 16/20/6
f 42/21/7 43/22/8 33/23/9
f 66/24/7 67/25/8 57/26/9
f 83/27/10 87/28/11 91/29/12
f 107/30/10 111/31/11 115/32/12
f 127/33/10 131/34/11 135/35/12
f 138/36/1 140/37/1 137/38/1
f 139/39/6 142/40/6 140/37/6
f 141/41/3 144/42/3 142/40/3
f 143/43/5 137/44/5 144/42/5
f 143/45/2 139/39/2 138/36/2
f 137/38/4 142/46/4 144/47/4
f 146/48/1 148/49/1 145/50/1
f 147/51/6 150/52/6 148/49/6
f 149/53/3 152/54/3 150/52/3
f 151/55/5 145/56/5 152/54/5
f 151/57/2 147/51/2 146/48/2
f 145/50/4 150/58/4 152/59/4
f 154/60/1 156/61/1 153/62/1
f 155/63/2 158/64/2 156/61/2
f 157/65/3 160/66/3 158/64/3
f 159/67/4 153/68/4 160/66/4
f 159/69/5 155/63/5 154/60/5
f 153/62/6 158/70/6 160/71/6
f 18/15/5 19/72/5 20/16/5
f 9/18/6 12/73/6 14/19/6
f 34/74/13 35/75/14 42/21/15
f 42/21/16 39/76/17 38/77/18
f 43/22/19 36/78/20 33/23/21
f 42/21/22 38/77/23 43/22/24
f 33/23/25 34/74/26 42/21/27
f 58/79/13 59/80/14 66/24/15
f 66/24/16 63/81/17 62/82/18
f 67/25/19 60/83/20 57/26/21
f 66/24/22 62/82/23 67/25/24
f 57/26/25 58/79/26 66/24/27
f 81/84/28 82/85/29 83/27/30
f 83/27/31 90/86/32 87/28/33
f 84/87/34 81/84/35 83/27/36
f 87/28/37 86/88/38 91/29/39
f 91/29/40 84/87/41 83/27/42
f 105/89/28 106/90/29 107/30/30
f 107/30/31 114/91/32 111/31/33
f 108/92/34 105/89/35 107/30/36
f 111/31/37 110/93/38 115/32/39
f 115/32/40 108/92/41 107/30/42
f 125/94/28 126/95/29 127/33/30
f 127/33/31 134/96/32 131/34/33
f 128/97/34 125/94/35 127/33/36
f 131/34/37 130/98/38 135/35/39
f 135/35/40 128/97/41 127/33/42
f 138/36/1 139/39/1 140/37/1
f 139/39/6 141/41/6 142/40/6
f 141/41/3 143/43/3 144/42/3
f 143/43/5 138/99/5 137/44/5
f 143/45/2 141/100/2 139/39/2
f 137/38/4 140/37/4 142/46/4
f 146/48/1 147/51/1 148/49/1
f 147/51/6 149/53/6 150/52/6
f 149/53/3 151/55/3 152/54/3
f 151/55/5 146/101/5 145/56/5
f 151/57/2 149/102/2 147/51/2
f 145/50/4 148/49/4 150/58/4
f 154/60/1 155/63/1 156/61/1
f 155/63/2 157/65/2 158/64/2
f 157/65/3 159/67/3 160/66/3
f 159/67/4 154/103/4 153/68/4
f 159/69/5 157/104/5 155/63/5
f 153/62/6 156/61/6 158/70/6
s 1
f 10/105/1 12/73/1 9/18/1
f 11/106/2 14/107/2 12/73/2
f 13/108/3 16/109/3 14/107/3
f 15/110/4 9/111/4 16/109/4
f 18/112/4 22/113/4 21/114/4
f 22/115/1 20/16/1 23/116/1
f 23/116/2 19/117/2 24/118/2
f 24/118/3 18/112/3 21/114/3
f 21/114/4 26/119/4 25/120/4
f 26/121/1 23/116/1 27/122/1
f 27/122/2 24/118/2 28/123/2
f 28/123/3 21/114/3 25/120/3
f 25/120/4 30/124/4 29/125/4
f 30/126/1 27/122/1 31/127/1
f 31/127/2 28/123/2 32/128/2
f 32/128/3 25/120/3 29/125/3
f 29/125/4 34/129/4 33/23/4
f 35/75/1 30/126/1 31/127/1
f 36/78/3 29/125/3 33/23/3
f 38/77/4 40/130/4 37/131/4
f 41/132/1 39/133/1 42/21/1
f 35/75/2 32/128/2 36/78/2
f 44/134/3 38/77/3 37/131/3
f 37/131/4 46/135/4 45/136/4
f 46/137/1 41/132/1 47/138/1
f 47/138/2 44/134/2 48/139/2
f 48/139/3 37/131/3 45/136/3
f 45/136/4 50/140/4 49/141/4
f 50/142/1 47/138/1 51/143/1
f 51/143/2 48/139/2 52/144/2
f 52/144/3 45/136/3 49/141/3
f 49/141/4 54/145/4 53/146/4
f 54/147/1 51/143/1 55/148/1
f 55/148/2 52/144/2 56/149/2
f 56/149/3 49/141/3 53/146/3
f 53/146/4 58/150/4 57/26/4
f 59/80/1 54/147/1 55/148/1
f 60/83/3 53/146/3 57/26/3
f 62/82/4 64/151/4 61/152/4
f 65/153/1 63/154/1 66/24/1
f 59/80/2 56/149/2 60/83/2
f 68/155/3 62/82/3 61/152/3
f 61/152/4 70/156/4 69/157/4
f 70/158/1 65/153/1 71/159/1
f 71/159/2 68/155/2 72/160/2
f 72/160/3 61/152/3 69/157/3
f 69/157/4 74/161/4 73/162/4
f 74/163/1 71/159/1 75/164/1
f 75/164/2 72/160/2 76/165/2
f 76/165/3 69/157/3 73/162/3
f 73/162/4 78/166/4 77/167/4
f 78/168/1 75/164/1 79/169/1
f 79/169/2 76/165/2 80/170/2
f 80/170/3 73/162/3 77/167/3
f 77/167/4 82/171/4 81/84/4
f 82/85/1 79/169/1 83/27/1
f 84/87/3 77/167/3 81/84/3
f 86/88/4 88/172/4 85/173/4
f 88/174/1 90/86/1 89/175/1
f 83/27/2 80/170/2 84/87/2
f 92/176/3 86/88/3 85/173/3
f 85/173/4 94/177/4 93/178/4
f 94/179/1 89/175/1 95/180/1
f 95/180/2 92/176/2 96/181/2
f 96/181/3 85/173/3 93/178/3
f 93/178/4 98/182/4 97/183/4
f 98/184/1 95/180/1 99/185/1
f 99/185/2 96/181/2 100/186/2
f 100/186/3 93/178/3 97/183/3
f 97/183/4 102/187/4 101/188/4
f 102/189/1 99/185/1 103/190/1
f 103/190/2 100/186/2 104/191/2
f 104/191/3 97/183/3 101/188/3
f 101/188/4 106/192/4 105/89/4
f 106/90/1 103/190/1 107/30/1
f 108/92/3 101/188/3 105/89/3
f 110/93/4 112/193/4 109/194/4
f 112/195/1 114/91/1 113/196/1
f 107/30/2 104/191/2 108/92/2
f 116/197/3 110/93/3 109/194/3
f 109/194/4 118/198/4 117/199/4
f 118/200/1 113/196/1 119/201/1
f 119/201/2 116/197/2 120/202/2
f 120/202/3 109/194/3 117/199/3
f 117/199/4 122/203/4 121/204/4
f 122/205/1 119/201/1 123/206/1
f 123/206/2 120/202/2 124/207/2
f 124/207/3 117/199/3 121/204/3
f 121/204/4 126/208/4 125/94/4
f 126/95/1 123/206/1 127/33/1
f 128/97/3 121/204/3 125/94/3
f 130/98/4 132/209/4 129/210/4
f 132/211/1 134/96/1 133/212/1
f 127/33/2 124/207/2 128/97/2
f 136/213/3 130/98/3 129/210/3
f 129/210/4 10/214/4 15/110/4
f 10/105/1 133/212/1 11/106/1
f 11/106/2 136/213/2 13/108/2
f 13/108/3 129/210/3 15/110/3
f 10/105/1 11/106/1 12/73/1
f 11/106/2 13/108/2 14/107/2
f 13/108/3 15/110/3 16/109/3
f 15/110/4 10/214/4 9/111/4
f 18/112/4 17/215/4 22/113/4
f 22/115/1 17/17/1 20/16/1
f 23/116/2 20/16/2 19/117/2
f 24/118/3 19/117/3 18/112/3
f 21/114/4 22/113/4 26/119/4
f 26/121/1 22/115/1 23/116/1
f 27/122/2 23/116/2 24/118/2
f 28/123/3 24/118/3 21/114/3
f 25/120/4 26/119/4 30/124/4
f 30/126/1 26/121/1 27/122/1
f 31/127/2 27/122/2 28/123/2
f 32/128/3 28/123/3 25/120/3
f 29/125/4 30/124/4 34/129/4
f 35/75/1 34/74/1 30/126/1
f 36/78/3 32/128/3 29/125/3
f 38/77/4 39/76/4 40/130/4
f 41/132/1 40/216/1 39/133/1
f 36/78/2 43/22/2 35/75/2
f 43/22/2 44/134/2 42/21/2
f 35/75/2 43/22/2 42/21/2
f 44/134/2 41/132/2 42/21/2
f 35/75/2 31/127/2 32/128/2
f 44/134/3 43/22/3 38/77/3
f 37/131/4 40/130/4 46/135/4
f 46/137/1 40/216/1 41/132/1
f 47/138/2 41/132/2 44/134/2
f 48/139/3 44/134/3 37/131/3
f 45/136/4 46/135/4 50/140/4
f 50/142/1 46/137/1 47/138/1
f 51/143/2 47/138/2 48/139/2
f 52/144/3 48/139/3 45/136/3
f 49/141/4 50/140/4 54/145/4
f 54/147/1 50/142/1 51/143/1
f 55/148/2 51/143/2 52/144/2
f 56/149/3 52/144/3 49/141/3
f 53/146/4 54/145/4 58/150/4
f 59/80/1 58/79/1 54/147/1
f 60/83/3 56/149/3 53/146/3
f 62/82/4 63/81/4 64/151/4
f 65/153/1 64/217/1 63/154/1
f 60/83/2 67/25/2 59/80/2
f 67/25/2 68/155/2 66/24/2
f 59/80/2 67/25/2 66/24/2
f 68/155/2 65/153/2 66/24/2
f 59/80/2 55/148/2 56/149/2
f 68/155/3 67/25/3 62/82/3
f 61/152/4 64/151/4 70/156/4
f 70/158/1 64/217/1 65/153/1
f 71/159/2 65/153/2 68/155/2
f 72/160/3 68/155/3 61/152/3
f 69/157/4 70/156/4 74/161/4
f 74/163/1 70/158/1 71/159/1
f 75/164/2 71/159/2 72/160/2
f 76/165/3 72/160/3 69/157/3
f 73/162/4 74/161/4 78/166/4
f 78/168/1 74/163/1 75/164/1
f 79/169/2 75/164/2 76/165/2
f 80/170/3 76/165/3 73/162/3
f 77/167/4 78/166/4 82/171/4
f 82/85/1 78/168/1 79/169/1
f 84/87/3 80/170/3 77/167/3
f 86/88/4 87/28/4 88/172/4
f 88/174/1 87/218/1 90/86/1
f 84/87/2 91/29/2 83/27/2
f 91/29/2 92/176/2 90/86/2
f 83/27/2 91/29/2 90/86/2
f 92/176/2 89/175/2 90/86/2
f 83/27/2 79/169/2 80/170/2
f 92/176/3 91/29/3 86/88/3
f 85/173/4 88/172/4 94/177/4
f 94/179/1 88/174/1 89/175/1
f 95/180/2 89/175/2 92/176/2
f 96/181/3 92/176/3 85/173/3
f 93/178/4 94/177/4 98/182/4
f 98/184/1 94/179/1 95/180/1
f 99/185/2 95/180/2 96/181/2
f 100/186/3 96/181/3 93/178/3
f 97/183/4 98/182/4 102/187/4
f 102/189/1 98/184/1 99/185/1
f 103/190/2 99/185/2 100/186/2
f 104/191/3 100/186/3 97/183/3
f 101/188/4 102/187/4 106/192/4
f 106/90/1 102/189/1 103/190/1
f 108/92/3 104/191/3 101/188/3
f 110/93/4 111/31/4 112/193/4
f 112/195/1 111/219/1 114/91/1
f 108/92/2 115/32/2 107/30/2
f 115/32/2 116/197/2 114/91/2
f 107/30/2 115/32/2 114/91/2
f 116/197/2 113/196/2 114/91/2
f 107/30/2 103/190/2 104/191/2
f 116/197/3 115/32/3 110/93/3
f 109/194/4 112/193/4 118/198/4
f 118/200/1 112/195/1 113/196/1
f 119/201/2 113/196/2 116/197/2
f 120/202/3 116/197/3 109/194/3
f 117/199/4 118/198/4 122/203/4
f 122/205/1 118/200/1 119/201/1
f 123/206/2 119/201/2 120/202/2
f 124/207/3 120/202/3 117/199/3
f 121/204/4 122/203/4 126/208/4
f 126/95/1 122/205/1 123/206/1
f 128/97/3 124/207/3 121/204/3
f 130/98/4 131/34/4 132/209/4
f 132/211/1 131/220/1 134/96/1
f 128/97/2 135/35/2 127/33/2
f 135/35/2 136/213/2 134/96/2
f 127/33/2 135/35/2 134/96/2
f 136/213/2 133/212/2 134/96/2
f 127/33/2 123/206/2 124/207/2
f 136/213/3 135/35/3 130/98/3
f 129/210/4 132/209/4 10/214/4
f 10/105/1 132/211/1 133/212/1
f 11/106/2 133/212/2 136/213/2
f 13/108/3 136/213/3 129/210/3
